<svg id="Layer_1" data-name="Layer 1" xmlns="http://www.w3.org/2000/svg" xmlns:xlink="http://www.w3.org/1999/xlink" viewBox="0 0 200 20.43"><defs><style>.cls-1{fill:#fff;}.cls-2{fill:url(#linear-gradient);}.cls-3{fill:url(#linear-gradient-2);}</style><linearGradient id="linear-gradient" x1="126.34" y1="10.23" x2="200" y2="10.23" gradientUnits="userSpaceOnUse"><stop offset="0.1" stop-color="#005dff"/><stop offset="0.5" stop-color="#b52eac"/><stop offset="1" stop-color="#ff1758"/></linearGradient><linearGradient id="linear-gradient-2" x1="0" y1="10.21" x2="55.64" y2="10.21" xlink:href="#linear-gradient"/></defs><title>Artboard 1</title><path class="cls-1" d="M63.66,20.43a4.66,4.66,0,0,1-3.31-1.17,4.93,4.93,0,0,1-1.43-3.73v-2.6h3.14v2.6A1.87,1.87,0,0,0,62.49,17a1.65,1.65,0,0,0,1.17.34A1.58,1.58,0,0,0,64.82,17a1.81,1.81,0,0,0,.43-1.42V14.27a3,3,0,0,0-1-2.28,9.92,9.92,0,0,0-1.2-.74A11.2,11.2,0,0,1,61,10a6.36,6.36,0,0,1-1.56-2.08,5.79,5.79,0,0,1-.55-2.51V4.92a4.93,4.93,0,0,1,1.43-3.73,5.25,5.25,0,0,1,6.61,0,4.93,4.93,0,0,1,1.43,3.73V6.66H65.25V4.92a1.81,1.81,0,0,0-.43-1.42,1.58,1.58,0,0,0-1.16-.34,1.65,1.65,0,0,0-1.17.34,1.87,1.87,0,0,0-.43,1.42v.49a2.93,2.93,0,0,0,1,2.25,8.53,8.53,0,0,0,1.12.68,11.62,11.62,0,0,1,2,1.32,6,6,0,0,1,2.11,4.61v1.26A4.93,4.93,0,0,1,67,19.26,4.64,4.64,0,0,1,63.66,20.43Z"/><path class="cls-1" d="M73.35,20.2H70.21V.25h4.73a4.66,4.66,0,0,1,3.31,1.2,4.78,4.78,0,0,1,1.43,3.7V7.32a4.82,4.82,0,0,1-1.43,3.73,4.66,4.66,0,0,1-3.31,1.17H73.35Zm0-11.12h1.59a1.67,1.67,0,0,0,1.17-.34,1.87,1.87,0,0,0,.43-1.42V5.15a1.93,1.93,0,0,0-.43-1.42,1.67,1.67,0,0,0-1.17-.35H73.35Z"/><path class="cls-1" d="M85.92,20.43a4.66,4.66,0,0,1-3.31-1.17,4.93,4.93,0,0,1-1.42-3.73V4.92a4.93,4.93,0,0,1,1.42-3.73,5.25,5.25,0,0,1,6.61,0,4.93,4.93,0,0,1,1.43,3.73V15.53a4.93,4.93,0,0,1-1.43,3.73A4.62,4.62,0,0,1,85.92,20.43Zm0-17.27a1.69,1.69,0,0,0-1.17.34,1.87,1.87,0,0,0-.43,1.42V15.53A1.87,1.87,0,0,0,84.75,17a1.69,1.69,0,0,0,1.17.34A1.62,1.62,0,0,0,87.09,17a1.85,1.85,0,0,0,.42-1.42V4.92a1.85,1.85,0,0,0-.42-1.42A1.62,1.62,0,0,0,85.92,3.16Z"/><path class="cls-1" d="M102.05,20.2H98.86l-1.63-8H95.81v8H92.67V.25h4.74a4.64,4.64,0,0,1,3.3,1.2,4.78,4.78,0,0,1,1.43,3.7V7.29A4.82,4.82,0,0,1,100.71,11a2.34,2.34,0,0,1-.45.37Zm-3-15a1.93,1.93,0,0,0-.43-1.42,1.64,1.64,0,0,0-1.16-.35h-1.6V9.06h1.6a1.64,1.64,0,0,0,1.16-.35A1.87,1.87,0,0,0,99,7.29Z"/><path class="cls-1" d="M112.66,3.38h-3.2V20.2h-3.13V3.38h-3.2V.25h9.53Z"/><path class="cls-1" d="M118.33,20.43A4.66,4.66,0,0,1,115,19.26a4.93,4.93,0,0,1-1.42-3.73v-2.6h3.13v2.6a1.87,1.87,0,0,0,.43,1.42,1.69,1.69,0,0,0,1.17.34A1.62,1.62,0,0,0,119.5,17a1.85,1.85,0,0,0,.42-1.42V14.27a3,3,0,0,0-1-2.28,9.11,9.11,0,0,0-1.2-.74,10.68,10.68,0,0,1-2-1.25,6.25,6.25,0,0,1-1.57-2.08,5.93,5.93,0,0,1-.54-2.51V4.92A4.93,4.93,0,0,1,115,1.19a5.25,5.25,0,0,1,6.61,0,4.93,4.93,0,0,1,1.43,3.73V6.66h-3.14V4.92a1.85,1.85,0,0,0-.42-1.42,1.62,1.62,0,0,0-1.17-.34,1.69,1.69,0,0,0-1.17.34,1.87,1.87,0,0,0-.43,1.42v.49a2.91,2.91,0,0,0,1.06,2.25,8.94,8.94,0,0,0,1.11.68,11.24,11.24,0,0,1,2,1.32,5.92,5.92,0,0,1,2.11,4.61v1.26a4.93,4.93,0,0,1-1.43,3.73A4.62,4.62,0,0,1,118.33,20.43Z"/><path class="cls-2" d="M134.61,20.2h-8.27V.25h3.14V17.07h5.13Zm4.65-16.82v5h3.53v3.14h-3.53v5.53h5.13V20.2h-8.27V.25h8.27V3.38ZM152.91,17h-3.59l-.57,3.16h-3.19l4-19.95h3.13l4,20h-3.19Zm-.54-3.14-1.26-7.15-1.25,7.15Zm10.17,6.53a4.76,4.76,0,0,1-3.3-1.17,5,5,0,0,1-1.43-3.73V4.92a5,5,0,0,1,1.43-3.73A4.76,4.76,0,0,1,162.54,0a4.66,4.66,0,0,1,3.31,1.17,4.93,4.93,0,0,1,1.43,3.73V6.69h-3.14V4.92a1.9,1.9,0,0,0-.4-1.42,1.72,1.72,0,0,0-1.2-.34,1.64,1.64,0,0,0-1.16.34A1.87,1.87,0,0,0,161,4.92V15.53a1.87,1.87,0,0,0,.43,1.42,1.64,1.64,0,0,0,1.16.34,1.72,1.72,0,0,0,1.2-.34,1.9,1.9,0,0,0,.4-1.42V11.79h-1.57V8.66h4.71v6.87a4.93,4.93,0,0,1-1.43,3.73A4.66,4.66,0,0,1,162.54,20.43Zm11.38,0a4.66,4.66,0,0,1-3.31-1.17,4.93,4.93,0,0,1-1.42-3.73V.25h3.13V15.53a1.9,1.9,0,0,0,.4,1.42,1.74,1.74,0,0,0,1.2.34,1.69,1.69,0,0,0,1.17-.34,1.91,1.91,0,0,0,.42-1.42V.25h3.14V15.53a5,5,0,0,1-1.43,3.73A4.76,4.76,0,0,1,173.92,20.43Zm10-17v5h3.54v3.14h-3.54v5.53h5.13V20.2h-8.26V.25h8.26V3.38Zm11.35,17.05A4.66,4.66,0,0,1,192,19.26a4.93,4.93,0,0,1-1.42-3.73v-2.6h3.13v2.6A1.87,1.87,0,0,0,194.1,17a1.69,1.69,0,0,0,1.17.34,1.62,1.62,0,0,0,1.17-.34,1.85,1.85,0,0,0,.42-1.42V14.27A3,3,0,0,0,195.81,12a9.11,9.11,0,0,0-1.2-.74,10.68,10.68,0,0,1-2-1.25,6.25,6.25,0,0,1-1.57-2.08,5.93,5.93,0,0,1-.54-2.51V4.92A4.93,4.93,0,0,1,192,1.19a5.25,5.25,0,0,1,6.61,0A4.93,4.93,0,0,1,200,4.92V6.66h-3.14V4.92a1.85,1.85,0,0,0-.42-1.42,1.62,1.62,0,0,0-1.17-.34,1.69,1.69,0,0,0-1.17.34,1.87,1.87,0,0,0-.43,1.42v.49a2.91,2.91,0,0,0,1.06,2.25,8.94,8.94,0,0,0,1.11.68,11.91,11.91,0,0,1,2,1.31A6,6,0,0,1,200,14.27v1.26a4.93,4.93,0,0,1-1.43,3.73A4.62,4.62,0,0,1,195.27,20.43Z"/><path class="cls-3" d="M55.61,2.39H5.7A3,3,0,0,0,2.82,4.45a2.23,2.23,0,0,0-.13.72c0,3.24,0,6.49,0,9.74a3,3,0,0,0,3,3c5.41,0,10.82,0,16.24,0a3.32,3.32,0,0,0,2.91-1.61,2,2,0,0,0,.32-1c0-1.87,0-3.74,0-5.61a.93.93,0,0,0,0-.14H13.46V7.21s8.19,0,12.15,0a3,3,0,0,1,1.18.3A1.5,1.5,0,0,1,27.63,9c0,2.06,0,4.13,0,6.19a5.47,5.47,0,0,1-4.4,5.2,5.26,5.26,0,0,1-.89.07H5.64A5.65,5.65,0,0,1,0,14.75c0-.13,0-9.22,0-9.22A5.55,5.55,0,0,1,5.56,0C10.26,0,15,0,19.65,0H54.77a.79.79,0,0,1,.83.76C55.65,1.29,55.61,1.83,55.61,2.39ZM6,5.49H38V19.12c0,.15,0,.31,0,.46,0,.41.33.82.62.83.65,0,1.29,0,1.94,0V3.49H5.8a1.93,1.93,0,0,0-2,2.15v8.78c0,.22,0,.43,0,.65a1.69,1.69,0,0,0,1.39,1.56,5.33,5.33,0,0,0,1,.09h16a2,2,0,0,0,1.92-2v-4H13.45v1.76h8.69V14.6H6ZM42.66,20.42a1.1,1.1,0,0,0,1.19-1.24V5.46h11a.88.88,0,0,0,.75-.71c0-.41,0-.82,0-1.24H41.75V20.42Z"/></svg>